<?xml version="1.0" encoding="utf-8"?>
<!-- Generator: Adobe Illustrator 26.0.1, SVG Export Plug-In . SVG Version: 6.00 Build 0)  -->
<svg version="1.1" id="Layer_1" xmlns="http://www.w3.org/2000/svg" xmlns:xlink="http://www.w3.org/1999/xlink" x="0px" y="0px"
	 viewBox="0 0 499.04 496.94" style="enable-background:new 0 0 499.04 496.94;" xml:space="preserve">
<g>
	<path d="M2.04,0c63,0,126,0,189,0c0,49.7,0,99.39,0,149.62c6.32-4.92,11.69-9.94,17.82-13.74c51.39-31.88,104.22-30.21,156.89-4.36
		c31.05,15.24,51.59,41.7,66.34,72.32c9.43,19.58,16.88,40.11,25.47,60.1c8.04,18.73,23,29.93,41.5,37.07c0,0.67,0,1.33,0,2
		c-1.78,0.22-3.65,0.15-5.32,0.7c-15.47,5.19-27.04,14.94-33.52,30.03c-3.21,7.47-5.92,15.2-8.16,23.01
		c-8.01,27.98-18.19,54.97-35,79.02c-27.26,38.99-64.39,59.79-112.27,60.37c-31.48,0.38-62.96,0.39-94.44,0.8
		c-4.08,0.05-6.13-1.4-7.36-4.99c-2.88-8.43-5.07-17.1-10.75-24.4c-2.72-3.5-0.58-7.47,2.16-9.85c5.8-5.04,6.39-11.56,7.14-18.47
		c0.46-4.29,1.22-9.58,3.95-12.39c7.6-7.84,10.47-17.34,11.85-27.47c1.19-8.71,5.63-14.41,13.52-17.61
		c7.69-3.12,12.9-8.63,16.34-16.02c0.49-1.06,0.99-2.13,1.65-3.08c2.2-3.16,7.76-5.12,10.67-3.41c3.85,2.26,0.52,5.05-0.09,7.37
		c-2.76,10.57,0.2,17.51,9.96,22.57c0.84,0.44,1.61,1.11,2.26,1.81c3.2,3.53,6.13,7.33,9.57,10.61c3.64,3.48,6.2,7.08,6.3,12.45
		c0.13,6.33,4.93,12.07,10.55,13c10.71,1.77,18.7-4.27,26.59-10.04c1.08-0.79,1.03-3.31,1.26-5.07c0.42-3.09-0.12-6.55,1.09-9.25
		c4.88-10.88,6.27-22.34,7.05-34.03c0.44-6.54,3.26-12.35,8.21-16.61c8.85-7.63,9.54-17.21,7.34-27.59
		c-0.65-3.08-1.88-6.03-2.85-9.05c-1.24-3.86-1.8-8.28,1.89-10.43c2.32-1.35,6.49-0.92,9.27,0.16c7.89,3.07,15.47,6.93,23.22,10.37
		c4.82,2.14,9.81,3.37,14.86,2.26c-5.8-3.53-11.66-6.82-17.22-10.56c-5.8-3.9-11.17-8.43-16.98-12.31
		c-6.48-4.32-13.45-7.4-21.51-5.22c-1.25-2.23-2.34-4.28-3.54-6.26c-2.75-4.52-0.78-9.29,4.53-9.58c3.14-0.17,6.63,0.73,9.49,2.12
		c4.31,2.1,8.24,5.01,12.28,7.65c12.42,8.11,24.89,16.1,39.53,19.8c9.53,2.41,20.06,2.4,25.71-0.29
		c-11.68-0.57-21.59-5.33-30.58-11.77C383.08,280.9,369,269.7,354.4,259.23c-6.85-4.91-14.01-9.76-21.72-13
		c-11.94-5.02-17.17-2.75-24.35,7.94c-0.25,0.37-0.76,0.56-1.15,0.83c-0.44,0.39-0.88,0.78-1.32,1.17c-1.66-2.25-3.22-4.58-5-6.73
		c-5.85-7.05-11.68-14.13-17.72-21.02c-8.79-10.02-17.68-19.91-29.46-26.73c-12.35-7.16-23.83-6.56-35.3,2.06
		c-7.92,5.95-16.31,11.46-27.34,5.56c0.16,2.43,0.22,4.06,0.38,5.69c1.9,19.39,1.52,38.6-4.35,57.4c-4.35,13.95-4.05,27.9-0.2,41.88
		c3.1,11.24,4.42,22.54,1.13,34.01c-2.43,8.48-4.54,17.06-7.17,25.48c-4.18,13.35-4.7,26.81-2.05,40.47
		c1.29,6.65-0.06,12.8-3.04,18.85c-2.78,5.65-5.29,11.49-7.24,17.46c-0.7,2.13-0.14,5.4,1.12,7.31c3.31,5.02,3.69,9.04,1.25,14.36
		c-1.46,3.19-2.03,6.84-2.68,10.35c-0.54,2.93-0.59,5.94-0.91,8.91c-0.42,3.93-2.28,5.49-6.57,5.47
		c-37.33-0.18-74.65-0.1-111.98-0.11c-1.62,0-3.24-0.15-5.19-0.24c-0.1-1.92-0.27-3.54-0.26-5.16c0.1-12.16,0.33-24.32,0.35-36.47
		c0.05-31.49,0.43-63-0.09-94.48c-0.59-35.62-13.81-48.2-40.19-56.71c-1.1-0.36-2.12-0.98-3.35-1.56c0.63-0.57,0.83-0.86,1.11-0.99
		c29.23-13.53,42.54-36.98,42.52-68.58c-0.02-33.15-0.19-66.31-0.41-99.46c-0.03-4.3-0.45-8.66-1.24-12.9
		c-3.69-19.83-15.15-31.5-34.75-35.68c-1.44-0.31-2.86-0.7-4.69-1.15c0-2.07,0-4.05,0-6.03c0-23.83,0.01-47.66-0.02-71.49
		C2.52,3.95,2.21,1.97,2.04,0z"/>
</g>
</svg>
